<svg width="128" height="128" viewBox="0 0 128 128" fill="none" xmlns="http://www.w3.org/2000/svg">
<g clip-path="url(#clip0_289_984)">
<path d="M51.955 12.365C51.75 12.47 51.25 12.56 51.05 12.665C45.123 15.6531 39.041 18.3236 32.83 20.665C31.765 21.065 30.74 21.445 29.745 21.795C28.2784 22.3117 26.89 22.7817 25.58 23.205C23.225 23.965 21.135 24.58 19.36 25.065C15.465 26.13 13.265 26.525 13.165 26.565C11.7011 26.8045 10.2063 26.7825 8.75002 26.5C6.16502 26 3.44502 24.59 2.18002 21.39C1.78779 20.511 1.57761 19.5616 1.56214 18.5992C1.54667 17.6368 1.72624 16.6812 2.09002 15.79C2.9459 13.9661 4.46352 12.5361 6.33502 11.79L6.49502 11.74C6.83275 11.6419 7.19539 11.679 7.50628 11.8434C7.81717 12.0078 8.05196 12.2867 8.16103 12.621C8.27009 12.9554 8.24489 13.319 8.09076 13.6351C7.93662 13.9512 7.66561 14.195 7.33502 14.315C7.17502 14.375 3.42002 15.885 4.46002 19.705C4.52002 19.905 4.60002 20.125 4.68502 20.355V20.4C6.47502 24.9 12.43 23.94 12.685 23.9C12.685 23.9 14.865 23.515 18.63 22.48C20.305 22.025 22.26 21.45 24.455 20.75C27.0469 19.9881 29.5985 19.0953 32.1 18.075C38.4582 15.3619 45.1269 13.4441 51.955 12.365Z" fill="#8FBFC1"/>
<path d="M85.295 20.585C83.69 17.37 80.335 14.995 75.335 13.545C71.335 12.385 66.26 11.795 60.25 11.795C57.335 11.795 54.445 11.935 51.75 12.145C51.75 12.145 52.75 14.715 57.395 14.565C58.465 14.5217 59.535 14.5 60.605 14.5C66.105 14.5 70.725 15 74.325 16C78.67 17.205 81.535 19.135 82.825 21.735C84.5 25.5 83.875 30.64 81 37C78.5 42.5 74.315 49 68.5 56.305L68.46 56.36C52.545 76.4 29.61 96.36 25.175 100.18H25.14L25.1 100.21L25.035 100.265H25.01C25.0027 100.277 24.9923 100.288 24.98 100.295C19.3699 101.236 13.8893 102.83 8.64997 105.045C4.19997 107.02 1.26997 109.18 0.399971 111.125C0.125372 111.657 -0.0216466 112.246 -0.0294568 112.845C-0.037267 113.443 0.0943452 114.036 0.354971 114.575C0.624062 115.033 0.999363 115.42 1.44924 115.703C1.89912 115.986 2.4104 116.156 2.93997 116.2C3.20507 116.237 3.47236 116.255 3.73997 116.255C6.05497 116.255 9.40497 114.97 13.405 112.555C17.9851 109.712 22.3007 106.464 26.3 102.85C30.7986 102.108 35.3505 101.735 39.91 101.735C41.555 101.735 43.21 101.78 44.83 101.885C45.405 101.915 46.155 101.945 46.905 101.945C53.3236 101.996 59.6258 100.231 65.085 96.855C68.949 94.4314 72.3602 91.3519 75.165 87.755C75.27 87.615 76.09 86.485 77.205 84.755C78.175 83.255 79.365 81.255 80.505 79.02C80.2544 79.1599 80.0139 79.3169 79.785 79.49C77.8706 80.8115 76.1171 82.3519 74.56 84.08C73.2365 85.9785 71.7527 87.76 70.125 89.405C65.085 94.495 57.515 99.27 46.87 99.27C46.25 99.27 45.61 99.27 44.98 99.215C43.37 99.115 41.715 99.065 40.06 99.065C36.7027 99.0693 33.3485 99.2713 30.015 99.67C36.85 93.695 52.185 79.81 65.195 64.67C72.925 55.67 78.62 47.62 82.13 40.74C84.165 36.74 85.49 33.08 86.06 29.86C86.695 26.27 86.435 23.17 85.295 20.585ZM3.82497 113.605C3.66789 113.603 3.51101 113.593 3.35497 113.575C2.89497 113.51 2.78997 113.37 2.76497 113.325C2.68313 112.986 2.73317 112.629 2.90497 112.325C3.47497 111.045 5.69997 109.425 9.00997 107.885C12.8233 106.168 16.8024 104.846 20.885 103.94C13.67 109.835 7.05997 113.605 3.82497 113.605Z" fill="#8FBFC1"/>
<path d="M125.355 101.33C124.3 102.28 123.16 103.155 122.99 103.28C118.494 106.355 113.642 108.873 108.54 110.78C103.908 112.546 99.0471 113.641 94.105 114.03C93.74 114.06 93.365 114.08 92.985 114.09C92.335 114.115 91.68 114.13 90.985 114.125C86.5258 114.116 82.1124 113.224 78 111.5C76.144 110.672 74.3553 109.701 72.65 108.595C68.845 106.095 67.235 103.73 67.89 101.595C68.165 100.675 68.865 99.92 70.09 99.225C71.745 98.285 74.415 97.445 78.03 96.725C80.495 96.225 83.46 95.82 86.38 95.525C86.4199 95.5215 86.4601 95.5215 86.5 95.525H86.67C88.125 95.405 89.67 95.32 91.17 95.26C95.955 95.075 102.725 95.09 107.745 96.26L107.995 96.31C106.68 95.9 105.365 95.46 104.52 95.115C104.165 94.965 103.77 94.79 103.345 94.615C100.845 93.495 96.22 91.41 91.08 91.245C90.795 91.245 90.515 91.245 90.235 91.245C88.1702 91.3402 86.1513 91.8863 84.32 92.845C84.2527 92.9098 84.177 92.9653 84.095 93.01H84.06C83.475 93.36 82.915 93.675 82.34 93.97C80.6662 94.878 78.9036 95.6118 77.08 96.16C76.77 96.255 76.46 96.33 76.11 96.415L75.64 96.52L75.235 96.615C74.66 96.75 74.07 96.95 73.565 97.115C72.98 97.315 72.405 97.54 71.955 97.72L71.885 97.75C71.345 97.97 70.8 98.21 70.27 98.46C69.1951 98.9777 68.1502 99.5553 67.14 100.19C66.725 100.45 66.315 100.72 65.875 101.01C65.265 101.41 64.64 101.825 64.01 102.205C64.01 102.205 63.915 102.27 63.73 102.375C62.68 102.975 58.655 105.04 51.69 105.715C53.155 105.155 54.69 104.49 56.37 103.715C58.5728 102.674 60.713 101.505 62.78 100.215C63.195 99.955 63.56 99.715 63.905 99.49L64.325 99.21L65.87 98.21C66.9553 97.5217 68.0769 96.8925 69.23 96.325C69.58 96.155 69.945 95.985 70.315 95.825C71.06 95.485 71.865 95.165 72.775 94.825C73.31 94.65 73.955 94.435 74.63 94.255L75.25 94.105C75.36 94.105 75.47 94.055 75.57 94.03C75.8456 93.9782 76.1177 93.9097 76.385 93.825C77.965 93.325 80.745 91.945 82.235 91.195C82.695 90.96 83.035 90.79 83.185 90.725H83.215H83.27C85.3977 89.6313 87.7354 89.0073 90.125 88.895C90.465 88.895 90.81 88.895 91.125 88.895C96.725 89.065 101.625 91.28 104.27 92.47H104.305L105.02 92.79L105.41 92.965C107.88 93.965 115.2 95.965 117.41 96.58L117.54 96.615C117.801 96.6832 118.031 96.8387 118.191 97.0558C118.351 97.2729 118.433 97.5383 118.421 97.8079C118.409 98.0775 118.305 98.3349 118.127 98.5373C117.948 98.7396 117.706 98.8747 117.44 98.92C116.368 99.0943 115.286 99.1946 114.2 99.22C111.862 99.284 109.525 99.042 107.25 98.5C102.51 97.43 95.935 97.425 91.25 97.605C90.185 97.645 88.55 97.72 86.82 97.865C86.7885 97.8605 86.7565 97.8605 86.725 97.865C86.685 97.865 82.645 98.22 78.475 99.04C70.89 100.54 70.195 102.09 70.14 102.265C69.64 103.935 74.28 107.265 78.945 109.305C83.3268 111.128 88.0605 111.948 92.8 111.705C97.8993 111.446 102.925 110.38 107.69 108.545C112.59 106.714 117.253 104.303 121.58 101.365C122.866 100.404 124.073 99.3427 125.19 98.19C125.203 98.1735 125.209 98.1533 125.209 98.1325C125.209 98.1117 125.203 98.0915 125.19 98.075C125.184 98.0516 125.17 98.0307 125.151 98.0155C125.132 98.0002 125.109 97.9913 125.085 97.99C124.791 97.9585 124.496 97.9435 124.2 97.945C123.894 97.9613 123.587 97.9411 123.285 97.885C117.42 96.925 111.285 90.385 110.12 89.075C110.065 89.01 104.37 82.78 100.73 80.88C100.083 80.5373 99.3561 80.375 98.625 80.41C97.1831 80.5487 95.8183 81.1263 94.715 82.065C94.6041 82.1572 94.5035 82.2612 94.415 82.375C93.9854 82.891 93.45 83.3088 92.845 83.6C92.4827 83.7635 92.0922 83.8552 91.695 83.87C90.8412 83.9007 90.009 83.5976 89.375 83.025C87.485 81.255 85.615 80.395 83.825 80.465C82.9012 80.4819 82.0059 80.7879 81.265 81.34L81.205 81.375L81.135 81.425L81.095 81.45C79.7032 82.3919 78.4159 83.4798 77.255 84.695C75.5148 86.4506 73.9008 88.327 72.425 90.31C70.3659 92.9709 67.821 95.2172 64.925 96.93C63.3993 97.8553 61.8007 98.6546 60.145 99.32C59.8595 99.4346 59.5419 99.4404 59.2525 99.3362C58.9631 99.232 58.722 99.0252 58.575 98.755C58.4698 98.5689 58.4146 98.3588 58.415 98.145C58.4156 97.8988 58.4878 97.6581 58.6227 97.4521C58.7576 97.2462 58.9495 97.0839 59.175 96.985C61.2386 96.0647 63.2426 95.016 65.175 93.845L65.735 93.465C65.81 93.42 65.865 93.375 65.92 93.335C67.5143 92.2022 68.9459 90.8563 70.175 89.335C70.295 89.185 70.41 89.04 70.52 88.89C71.7922 87.189 73.1576 85.5599 74.61 84.01C76.1684 82.2813 77.9236 80.7408 79.84 79.42C80.0496 79.2643 80.2702 79.124 80.5 79C81.294 78.5639 82.162 78.2791 83.06 78.16C83.287 78.1272 83.5157 78.1071 83.745 78.1C85.42 78.035 88.04 78.535 90.98 81.295C91.059 81.3705 91.1524 81.4293 91.2546 81.468C91.3569 81.5066 91.4658 81.5243 91.575 81.52C91.6636 81.5208 91.7511 81.5002 91.83 81.46C92.1293 81.3062 92.3933 81.0916 92.605 80.83C92.7862 80.6229 92.9853 80.4322 93.2 80.26C93.795 79.76 95.92 78.15 98.53 78.055C99.6695 78.0081 100.801 78.2634 101.81 78.795C105.53 80.74 110.81 86.365 111.845 87.475L111.95 87.59C112.82 88.55 118.64 94.75 123.68 95.59C123.836 95.6092 123.994 95.6092 124.15 95.59C127.33 95.53 127.9 96.85 127.96 97.64C128.02 98.43 127.625 99.33 125.355 101.33Z" fill="#8FBFC1"/>
<path d="M64 102.165C64 102.165 63.905 102.23 63.72 102.335C62.67 102.935 58.645 105 51.68 105.675C49.9932 105.835 48.2992 105.907 46.605 105.89C46.3124 105.871 46.0382 105.741 45.8378 105.527C45.6374 105.313 45.5259 105.031 45.5259 104.738C45.5259 104.444 45.6374 104.162 45.8378 103.948C46.0382 103.734 46.3124 103.604 46.605 103.585C49.565 103.585 57.525 103.325 62.765 100.18L64 102.165Z" fill="#8FBFC1"/>
<path d="M60.605 14.5C59.55 14.47 58.48 14.5 57.41 14.555C49.44 14.98 41.245 17.555 36.62 19.205C34.38 20.02 32.97 20.625 32.84 20.705L32.13 18.08C43.79 13.205 51.765 12.155 51.775 12.155C54.5915 11.777 57.4369 11.6598 60.275 11.805L60.605 14.5Z" fill="#8FBFC1"/>
</g>
<defs>
<clipPath id="clip0_289_984">
<rect width="128" height="128" fill="white"/>
</clipPath>
</defs>
</svg>
